<svg xmlns="http://www.w3.org/2000/svg" height="512pt" viewBox="0 -59 512.00101 512" width="512pt"><path d="m501.871094 100.761719h-66.683594v-90.632813c0-5.59375-4.535156-10.128906-10.128906-10.128906h-414.929688c-5.59375 0-10.128906 4.535156-10.128906 10.128906v293.496094c0 5.59375 4.535156 10.128906 10.128906 10.128906h42.558594c5.59375 0 10.128906-4.535156 10.128906-10.128906s-4.535156-10.128906-10.128906-10.128906h-32.429688v-38.769532h338.882813v38.769532h-223.410156c-5.59375 0-10.128907 4.535156-10.128907 10.128906s4.535157 10.128906 10.128907 10.128906h29.328125l-12.117188 33.339844h-21.417968c-3.167969 0-6.152344 1.480469-8.066407 4.003906l-13.042969 17.183594c-3.382812 4.453125-2.511718 10.808594 1.945313 14.1875 4.453125 3.382812 10.804687 2.511719 14.191406-1.941406l10-13.175782h162.089844l10 13.175782c1.992187 2.625 5.015625 4.003906 8.074219 4.003906 2.136718 0 4.285156-.671875 6.117187-2.0625 4.457031-3.378906 5.324219-9.734375 1.945313-14.1875l-13.042969-17.183594c-1.914063-2.523437-4.898437-4.003906-8.066406-4.003906h-22.984375l-12.117188-33.339844h90.574219v69.390625c0 5.59375 4.535156 10.128907 10.128906 10.128907h132.601563c5.59375 0 10.128906-4.535157 10.128906-10.128907v-272.253906c0-5.59375-4.535156-10.128906-10.128906-10.128906zm-327.375 246.332031 12.113281-33.339844h60.40625l12.113281 33.339844zm204.902344-174.453125h112.347656v143.332031h-112.347656zm112.34375-51.621094v31.363281h-112.34375v-31.363281zm-471.484376 113.453125v-214.214844h394.671876v80.507813h-45.660157c-5.59375 0-10.128906 4.53125-10.128906 10.125v123.582031zm471.484376 138.542969h-112.34375v-36.785156h112.347656v36.785156zm0 0"></path><path d="m233.6875 284.238281c5.59375 0 10.128906-4.53125 10.128906-10.125s-4.535156-10.128906-10.128906-10.128906h-31.46875c-5.59375 0-10.125 4.535156-10.125 10.128906s4.53125 10.125 10.125 10.125zm0 0"></path><path d="m426.609375 146.949219h18.390625c5.59375 0 10.128906-4.535157 10.128906-10.128907s-4.535156-10.125-10.128906-10.125h-18.390625c-5.59375 0-10.128906 4.53125-10.128906 10.125s4.535156 10.128907 10.128906 10.128907zm0 0"></path><path d="m435.222656 364.140625c.765625 0 1.546875-.089844 2.324219-.269531l.683594-.160156c5.445312-1.28125 8.820312-6.734376 7.539062-12.179688-1.277343-5.445312-6.730469-8.820312-12.175781-7.539062l-.683594.160156c-5.441406 1.28125-8.820312 6.730468-7.539062 12.175781 1.097656 4.664063 5.257812 7.8125 9.851562 7.8125zm0 0"></path><path d="m91.265625 293.691406-.625.144532c-5.445313 1.277343-8.824219 6.726562-7.550781 12.171874 1.09375 4.671876 5.253906 7.824219 9.851562 7.824219.765625 0 1.542969-.089843 2.320313-.269531l.621093-.148438c5.445313-1.273437 8.828126-6.722656 7.554688-12.167968-1.277344-5.449219-6.730469-8.828125-12.171875-7.554688zm0 0"></path><path d="m318.839844 81.542969c.765625 0 1.546875-.089844 2.324218-.273438l.625-.144531c5.441407-1.28125 8.820313-6.734375 7.539063-12.175781-1.28125-5.449219-6.730469-8.828125-12.175781-7.542969l-.625.148438c-5.441406 1.277343-8.820313 6.730468-7.539063 12.175781 1.097657 4.664062 5.253907 7.8125 9.851563 7.8125zm0 0"></path><path d="m65.59375 81.464844h104.316406c5.59375 0 10.128906-4.53125 10.128906-10.125s-4.535156-10.128906-10.128906-10.128906h-104.316406c-5.59375 0-10.128906 4.535156-10.128906 10.128906s4.535156 10.125 10.128906 10.125zm0 0"></path><path d="m65.59375 117.039062h252.1875c5.59375 0 10.128906-4.535156 10.128906-10.128906s-4.535156-10.128906-10.128906-10.128906h-252.1875c-5.59375 0-10.128906 4.535156-10.128906 10.128906s4.535156 10.128906 10.128906 10.128906zm0 0"></path><path d="m319.46875 135.808594h-253.875c-5.59375 0-10.128906 4.535156-10.128906 10.128906s4.535156 10.128906 10.128906 10.128906h253.875c5.59375 0 10.128906-4.535156 10.128906-10.128906s-4.535156-10.128906-10.128906-10.128906zm0 0"></path><path d="m166.535156 172.25h-100.941406c-5.59375 0-10.128906 4.535156-10.128906 10.128906s4.535156 10.128906 10.128906 10.128906h100.941406c5.59375 0 10.128906-4.535156 10.128906-10.128906s-4.535156-10.128906-10.128906-10.128906zm0 0"></path><path d="m252.5 172.25h-50.472656c-5.59375 0-10.125 4.535156-10.125 10.128906s4.53125 10.128906 10.125 10.128906h50.472656c5.59375 0 10.128906-4.535156 10.128906-10.128906s-4.535156-10.128906-10.128906-10.128906zm0 0"></path><path d="m203.234375 81.464844h20.585937c5.59375 0 10.125-4.53125 10.125-10.125s-4.53125-10.128906-10.125-10.128906h-20.585937c-5.59375 0-10.128906 4.535156-10.128906 10.128906s4.535156 10.125 10.128906 10.125zm0 0"></path><path d="m255.832031 81.464844h20.585938c5.59375 0 10.128906-4.53125 10.128906-10.125s-4.535156-10.128906-10.128906-10.128906h-20.585938c-5.59375 0-10.128906 4.535156-10.128906 10.128906s4.535156 10.125 10.128906 10.125zm0 0"></path><path d="m413.496094 244.667969-4.589844-4.539063 4.589844-4.535156c3.976562-3.933594 4.011718-10.34375.078125-14.324219-3.933594-3.976562-10.34375-4.011719-14.324219-.078125l-11.867188 11.738282c-2.429687 2.402343-3.480468 5.863281-2.804687 9.210937.410156 2.023437 1.417969 3.839844 2.851563 5.238281l11.824218 11.691406c1.972656 1.953126 4.546875 2.925782 7.121094 2.925782 2.609375 0 5.21875-1 7.203125-3.003906 3.929687-3.976563 3.894531-10.390626-.082031-14.324219zm0 0"></path><path d="m484.101562 232.882812-11.824218-11.691406c-3.976563-3.933594-10.390625-3.898437-14.324219.082032-3.929687 3.976562-3.894531 10.386718.082031 14.320312l4.589844 4.539062-4.589844 4.535157c-3.976562 3.933593-4.011718 10.347656-.078125 14.324219 1.980469 2.003906 4.589844 3.007812 7.203125 3.007812 2.570313 0 5.144532-.976562 7.121094-2.929688l11.867188-11.738281c2.429687-2.398437 3.480468-5.863281 2.804687-9.210937-.410156-2.023438-1.417969-3.835938-2.851563-5.238282zm0 0"></path><path d="m450.046875 209.25c-5.105469-2.292969-11.097656-.015625-13.390625 5.089844l-19.4375 43.285156c-2.289062 5.101562-.011719 11.097656 5.089844 13.390625 1.347656.601563 2.757812.890625 4.144531.890625 3.867187 0 7.558594-2.226562 9.246094-5.984375l19.4375-43.285156c2.292969-5.101563.011719-11.097657-5.089844-13.386719zm0 0"></path></svg>