<svg xmlns="http://www.w3.org/2000/svg" height="512" viewBox="0 0 64 64" width="512"><g id="copyright"><path d="m61.394 25.081-13.394-5.74v-11.341a1 1 0 0 0 -.293-.707l-5-5a1 1 0 0 0 -.707-.293h-37a3 3 0 0 0 -3 3v54a3 3 0 0 0 3 3h40a3 3 0 0 0 3-3v-2.486l5.206-3.714a21.038 21.038 0 0 0 8.794-17.092v-9.708a1 1 0 0 0 -.606-.919zm-15.394-16.667v.586h-5v-5h.586zm-1 51.586h-40a1 1 0 0 1 -1-1v-54a1 1 0 0 1 1-1h34v6a1 1 0 0 0 1 1h6v8.341l-13.394 5.74a1 1 0 0 0 -.606.919v9.708a21.038 21.038 0 0 0 8.794 17.092l5.206 3.714v2.486a1 1 0 0 1 -1 1zm15-24.292a19.04 19.04 0 0 1 -7.956 15.461l-5.044 3.602-5.044-3.6a19.04 19.04 0 0 1 -7.956-15.463v-9.049l13-5.571 13 5.571z"></path><path d="m47 23.923-10.371 4.148a1 1 0 0 0 -.629.929v6.31a17 17 0 0 0 6.38 13.275l4.62 3.415 4.62-3.415a17 17 0 0 0 6.38-13.275v-6.31a1 1 0 0 0 -.629-.929zm9 5.754v5.633a14.922 14.922 0 0 1 -5.63 11.712l-3.37 2.698-3.37-2.7a14.922 14.922 0 0 1 -5.63-11.71v-5.633l9-3.6z"></path><path d="m6 14h12v2h-12z"></path><path d="m20 14h20v2h-20z"></path><path d="m6 10h18v2h-18z"></path><path d="m26 10h11v2h-11z"></path><path d="m6 22h12v2h-12z"></path><path d="m20 22h11v2h-11z"></path><path d="m6 18h18v2h-18z"></path><path d="m26 18h14v2h-14z"></path><path d="m6 6h10v2h-10z"></path><path d="m18 6h19v2h-19z"></path><path d="m29 44h-22a1 1 0 0 0 -1 1v12a1 1 0 0 0 1 1h22a1 1 0 0 0 1-1v-12a1 1 0 0 0 -1-1zm-1 12h-20v-10h20z"></path><path d="m29 26h-22a1 1 0 0 0 -1 1v14a1 1 0 0 0 1 1h22a1 1 0 0 0 1-1v-14a1 1 0 0 0 -1-1zm-1 14h-20v-12h20z"></path><path d="m42.707 37.293-1.414 1.414 3 3a1 1 0 0 0 .707.293h.033a1 1 0 0 0 .72-.341l7-8-1.506-1.316-6.3 7.2z"></path><path d="m24 30h2v2h-2z"></path><path d="m24 48h2v2h-2z"></path></g></svg>