<svg xmlns="http://www.w3.org/2000/svg" xmlns:xlink="http://www.w3.org/1999/xlink" width="104" height="69" viewBox="0 0 104 69"><defs><polygon id="get-moving-a" points=".011 .905 26.718 .905 26.718 10 .011 10"></polygon><polygon id="get-moving-c" points="0 68.2 104 68.2 104 0 0 0"></polygon></defs><g fill="none" fill-rule="evenodd"><path fill="#3EC2CF" d="M21.2948,46.2471 C21.2948,45.1581 22.5768,44.5771 23.3958,45.2941 L28.9678,50.1771 C29.7758,50.8841 31.0058,50.8061 31.7208,49.9971 L34.2938,47.0731 C35.0078,46.2611 34.9258,45.0231 34.1138,44.3121 L18.6748,30.7981 C17.9368,30.1541 16.8398,30.1541 16.1018,30.7981 L0.6668,44.3121 C-0.1452,45.0231 -0.2272,46.2611 0.4868,47.0691 L3.0608,49.9971 C3.7708,50.8061 5.0008,50.8841 5.8138,50.1771 L11.3848,45.2941 C12.2028,44.5771 13.4848,45.1581 13.4848,46.2471 L13.4848,59.1051 L21.2948,59.1051 L21.2948,46.2471 Z"></path><g transform="translate(56 58.2)"><mask id="get-moving-b" fill="#fff"><use xlink:href="#get-moving-a"></use></mask><path fill="#FF5349" d="M26.7049,0.9055 L0.0109,0.9055 L0.0109,10.0005 L26.7179,10.0005 C26.7139,9.9595 26.7049,9.9205 26.7049,9.8785 L26.7049,0.9055 Z" mask="url(#get-moving-b)"></path></g><mask id="get-moving-d" fill="#fff"><use xlink:href="#get-moving-c"></use></mask><polygon fill="#FF5349" points="21.295 68.2 48.201 68.2 48.201 59.105 21.295 59.105" mask="url(#get-moving-d)"></polygon><path fill="#FF5349" d="M90.5018 68.2002L93.8168 68.2002C95.0578 68.2002 96.0628 67.1942 96.0628 65.9542L96.0628 61.3502C96.0628 60.1102 95.0578 59.1052 93.8168 59.1052L90.5148 59.1052 90.5148 68.0782C90.5148 68.1202 90.5058 68.1592 90.5018 68.2002M10.3944 59.1055C9.1544 59.1055 8.1494 60.1105 8.1494 61.3505L8.1494 65.9545C8.1494 67.1945 9.1544 68.2005 10.3944 68.2005L13.4854 68.2005 13.4854 59.1055 10.3944 59.1055z" mask="url(#get-moving-d)"></path><polygon fill="#DD3733" points="13.485 68.2 21.295 68.2 21.295 59.105 13.485 59.105" mask="url(#get-moving-d)"></polygon><path fill="#3EC2CF" d="M92.6151,14.9795 L98.1871,19.8625 C98.9951,20.5685 100.2251,20.4905 100.9401,19.6825 L103.5131,16.7575 C104.2271,15.9455 104.1451,14.7085 103.3341,13.9975 L87.8941,0.4835 C87.1561,-0.1615 86.0591,-0.1615 85.3211,0.4835 L69.8861,13.9975 C69.0741,14.7085 68.9921,15.9455 69.7071,16.7535 L72.2801,19.6825 C72.9901,20.4905 74.2201,20.5685 75.0321,19.8625 L80.6041,14.9795 C81.4231,14.2615 82.7051,14.8425 82.7051,15.9315 L82.7051,59.1055 L90.5141,59.1055 L90.5141,15.9315 C90.5141,14.8425 91.7971,14.2615 92.6151,14.9795" mask="url(#get-moving-d)"></path><path fill="#DD3733" d="M82.7049,68.0782 C82.7049,68.1202 82.7139,68.1592 82.7179,68.2002 L90.5019,68.2002 C90.5059,68.1592 90.5149,68.1202 90.5149,68.0782 L90.5149,59.1052 L82.7049,59.1052 L82.7049,68.0782 Z" mask="url(#get-moving-d)"></path><path fill="#3EC2CF" d="M56.0106,31.5948 C56.0106,30.5058 57.2926,29.9248 58.1116,30.6418 L63.6836,35.5248 C64.4906,36.2318 65.7216,36.1538 66.4366,35.3448 L69.0086,32.4208 C69.7236,31.6088 69.6416,30.3708 68.8296,29.6598 L53.3906,16.1458 C52.6526,15.5018 51.5556,15.5018 50.8176,16.1458 L35.3816,29.6598 C34.5706,30.3708 34.4886,31.6088 35.2026,32.4168 L37.7756,35.3448 C38.4866,36.1538 39.7166,36.2318 40.5286,35.5248 L46.1006,30.6418 C46.9186,29.9248 48.2006,30.5058 48.2006,31.5948 L48.2006,59.1058 L56.0106,59.1058 L56.0106,31.5948 Z" mask="url(#get-moving-d)"></path><polygon fill="#DD3733" points="48.201 68.2 56.011 68.2 56.011 59.105 48.201 59.105" mask="url(#get-moving-d)"></polygon></g></svg>