<svg xmlns="http://www.w3.org/2000/svg" width="120" height="68" viewBox="0 0 120 68"><g fill="none" fill-rule="evenodd"><path fill="#FFC759" d="M27.9343714.856971429C20.7198.856971429 14.8715143 6.70525714 14.8715143 13.9198286 14.8715143 21.1344 20.7198 26.9835429 27.9343714 26.9835429 35.1489429 26.9835429 40.9980857 21.1344 40.9980857 13.9198286 40.9980857 6.70525714 35.1489429.856971429 27.9343714.856971429M27.7941429 67.437C38.1801429 67.437 47.7827143 64.0898571 55.5878571 58.4181429 54.1007143 44.3815714 42.225 33.4444286 27.7941429 33.4444286 13.3632857 33.4444286 1.48757143 44.3815714-.000428571429 58.4181429 7.80471429 64.0898571 17.4081429 67.437 27.7941429 67.437"></path><path fill="#3EBFCC" d="M91.8362571.856971429C84.6216857.856971429 78.7734 6.70525714 78.7734 13.9198286 78.7734 21.1344 84.6216857 26.9835429 91.8362571 26.9835429 99.0508286 26.9835429 104.899114 21.1344 104.899114 13.9198286 104.899114 6.70525714 99.0508286.856971429 91.8362571.856971429M91.6956857 67.437C102.081686 67.437 111.685114 64.0898571 119.490257 58.4181429 118.002257 44.3815714 106.1274 33.4444286 91.6956857 33.4444286 77.2648286 33.4444286 65.3891143 44.3815714 63.9019714 58.4181429 71.7071143 64.0898571 81.3096857 67.437 91.6956857 67.437"></path><path fill="#FF5349" d="M59.8855714.856971429C52.671.856971429 46.8227143 6.70525714 46.8227143 13.9198286 46.8227143 21.1344 52.671 26.9835429 59.8855714 26.9835429 67.1001429 26.9835429 72.9484286 21.1344 72.9484286 13.9198286 72.9484286 6.70525714 67.1001429.856971429 59.8855714.856971429M59.7449143 67.437C70.1317714 67.437 79.7343429 64.0898571 87.5386286 58.4181429 86.0514857 44.3815714 74.1757714 33.4444286 59.7449143 33.4444286 45.3140571 33.4444286 33.4383429 44.3815714 31.9512 58.4181429 39.7563429 64.0898571 49.3589143 67.437 59.7449143 67.437"></path><path fill="#B2413A" d="M31.9509429,58.4178 C35.5423714,61.0278 39.5152286,63.1440857 43.7700857,64.6698 C48.0232286,63.1440857 51.9969429,61.0278 55.5883714,58.4178 C54.7132286,50.1592286 50.2406571,42.9755143 43.7700857,38.4592286 C37.2978,42.9755143 32.8260857,50.1592286 31.9509429,58.4178"></path><path fill="#3EBFCC" d="M91.6956857,67.437 C102.081686,67.437 111.685114,64.0898571 119.490257,58.4181429 C118.002257,44.3815714 106.1274,33.4444286 91.6956857,33.4444286 C77.2648286,33.4444286 65.3891143,44.3815714 63.9019714,58.4181429 C71.7071143,64.0898571 81.3096857,67.437 91.6956857,67.437"></path><path fill="#308F99" d="M63.9021429,58.4178 C67.4927143,61.0278 71.4664286,63.1440857 75.7204286,64.6698 C79.9744286,63.1440857 83.9481429,61.0278 87.5387143,58.4178 C86.6644286,50.1592286 82.1918571,42.9755143 75.7204286,38.4592286 C69.2481429,42.9755143 64.7772857,50.1592286 63.9021429,58.4178"></path></g></svg>