<svg xmlns="http://www.w3.org/2000/svg" xmlns:xlink="http://www.w3.org/1999/xlink" width="85" height="71" viewBox="0 0 85 71"><defs><polygon id="icon_section2_block4-a" points="0 .224 28.223 .224 28.223 58.677 0 58.677"></polygon></defs><g fill="none" fill-rule="evenodd"><path fill="#4357AD" d="M42.3349355,0.000109677419 C30.6926774,0.000109677419 20.1088065,4.76285161 12.3474839,12.3481419 L20.4619677,20.461529 L20.4619677,20.4620774 L28.2232903,28.2234 C31.7516129,24.6950774 36.8669677,22.402271 42.3349355,22.402271 C47.8034516,22.402271 52.7422258,24.6950774 56.4465806,28.2234 L64.2079032,20.461529 L72.3223871,12.3481419 C64.7370968,4.76285161 54.1532258,0.000109677419 42.3349355,0.000109677419"></path><path fill="#160C28" d="M69.4998935 25.5772129L68.5972484 26.0098903C68.6328935 26.0680194 68.6690871 26.1250516 68.7041839 26.1826323L69.4998935 25.5772129zM42.3349355 44.0997C41.3604516 44.0997 40.5707742 43.3100226 40.5707742 42.3355387 40.5707742 41.3610548 41.3604516 40.5713774 42.3349355 40.5713774 43.308871 40.5713774 44.0990968 41.3610548 44.0990968 42.3355387 44.0990968 43.3100226 43.308871 44.0997 42.3349355 44.0997L42.3349355 44.0997zM43.7459355 37.9248613C43.2167419 37.7482806 42.864129 37.7482806 42.3349355 37.7482806 39.8655484 37.7482806 37.9248065 39.6884742 37.9248065 42.1584097 37.9248065 44.6277968 39.8655484 46.5685387 42.3349355 46.5685387 44.4517097 46.5685387 46.215871 45.1575387 46.5684839 43.0402161L59.8904516 32.8950548C59.5021935 32.1667968 59.0728065 31.4670548 58.6055806 30.8002161L43.7459355 37.9248613z"></path><path fill="#B2413A" d="M68.5972484,26.0098903 L58.6056355,30.8000516 C59.0728613,31.4668903 59.5022484,32.1671806 59.8905065,32.8954387 L68.7041839,26.1826323 C68.6690871,26.1250516 68.6328935,26.067471 68.5972484,26.0098903"></path><path fill="#4357AD" d="M42.3349355,40.5715968 C41.3604516,40.5715968 40.5707742,41.3607258 40.5707742,42.3357581 C40.5707742,43.3096935 41.3604516,44.0999194 42.3349355,44.0999194 C43.308871,44.0999194 44.0990968,43.3096935 44.0990968,42.3357581 C44.0990968,41.3607258 43.308871,40.5715968 42.3349355,40.5715968"></path><path fill="#FF5349" d="M84.6697065,42.3351548 C84.6697065,30.6934452 79.9069645,20.1090258 72.3216742,12.3477032 L64.2077387,20.4616387 L64.2077387,20.4621871 L56.4464161,28.2235097 C57.2311581,29.0082516 57.9544806,29.8719613 58.6054161,30.8003806 L68.5931903,26.0118645 C68.6288355,26.0699935 68.6672226,26.125929 68.7028677,26.1846065 L59.8897387,32.8952194 C61.3912226,35.7133806 62.2675452,38.9565419 62.2675452,42.3351548 C62.2675452,44.6460581 61.8546097,46.8609935 61.1148355,48.9295097 C60.898771,49.1554452 60.7156097,49.415929 60.5850935,49.7142516 C59.9001581,51.2744129 59.0265774,52.7380581 58.0005452,54.0794129 C57.158771,55.1800258 57.2903839,56.7418323 58.2703516,57.7223484 L64.2077387,63.6597355 L70.2696097,69.7210581 C71.4184806,70.8704774 73.3038355,70.8041226 74.3677065,69.5762839 C78.338029,64.9917677 81.3519645,59.5068 83.0645774,53.4361548 C83.1002226,53.308929 83.1238032,53.1811548 83.1413516,53.0544774 L83.3097065,53.0840903 C84.1948032,49.6599613 84.6697065,46.0592516 84.6697065,42.3351548"></path><g transform="translate(0 12.124)"><mask id="icon_section2_block4-b" fill="#fff"><use xlink:href="#icon_section2_block4-a"></use></mask><path fill="#160C28" d="M25.8860097,41.6220323 L25.8882032,41.6209355 C25.1742032,40.6184839 24.553429,39.5409032 24.0417839,38.4073871 C24.0373968,38.3975161 24.0335581,38.3881935 24.0286226,38.3777742 C23.9337516,38.1666452 23.8432677,37.953871 23.7560742,37.7389032 C23.7456548,37.7125806 23.7352355,37.6857097 23.7242677,37.6593871 C23.6436548,37.458129 23.5668806,37.2552258 23.4928484,37.0506774 C23.4780419,37.009 23.4632355,36.9673226 23.448429,36.9256452 C23.3809774,36.7331613 23.3157194,36.5395806 23.2543,36.3449032 C23.2362032,36.287871 23.2192032,36.2313871 23.2016548,36.1743548 C23.1462677,35.9917419 23.0925258,35.8085806 23.0420742,35.6243226 C23.0228806,35.5524839 23.0042355,35.4795484 22.9855903,35.4066129 C22.9406226,35.2344194 22.8973,35.061129 22.8578161,34.8872903 C22.8375258,34.8006452 22.8199774,34.7134516 22.8013323,34.6262581 C22.7667839,34.4639355 22.7327839,34.3005161 22.7020742,34.1370968 C22.6828806,34.0345484 22.6669774,33.932 22.6499774,33.8289032 C22.6242032,33.6775484 22.598429,33.5256452 22.5764935,33.3726452 C22.5600419,33.2552903 22.5468806,33.1362903 22.5320742,33.0183871 C22.5150742,32.878 22.496429,32.7381613 22.4827194,32.5972258 C22.4695581,32.460129 22.4602355,32.3224839 22.4498161,32.1848387 C22.4399452,32.0603548 22.428429,31.9364194 22.4218484,31.8113871 C22.4125258,31.6452258 22.4086871,31.4779677 22.4037516,31.3107097 C22.4015581,31.2125484 22.3955258,31.1138387 22.394429,31.015129 C22.3911387,30.7480645 22.3933323,30.4799032 22.4021065,30.2106452 C22.4021065,29.8975161 22.4119774,29.5854839 22.4267839,29.2745484 C22.431171,29.1763871 22.4388484,29.0782258 22.445429,28.9800645 C22.4585903,28.7650968 22.4750419,28.5506774 22.4953323,28.3362581 C22.5057516,28.227129 22.5172677,28.118 22.5298806,28.0094194 C22.5534613,27.7988387 22.5808806,27.5899032 22.6110419,27.3820645 C22.6253,27.2822581 22.6390097,27.1819032 22.6549129,27.0820968 C22.6971387,26.8205161 22.7443,26.5594839 22.7963968,26.3006452 C22.8046226,26.2600645 22.8112032,26.2189355 22.819429,26.1789032 C22.8813968,25.8800323 22.9515903,25.5839032 23.0267194,25.2899677 C23.0486548,25.203871 23.0738806,25.1183226 23.0969129,25.0327742 C23.1533968,24.8238387 23.2120742,24.6154516 23.2751387,24.4092581 C23.3058484,24.3072581 23.3387516,24.2047097 23.3716548,24.1032581 C23.434171,23.9085806 23.499429,23.7166452 23.567429,23.5252581 C23.6019774,23.4281935 23.6359774,23.3305806 23.6716226,23.2346129 C23.754429,23.0125161 23.8416226,22.7937097 23.9315581,22.5754516 C23.9556871,22.5162258 23.9787194,22.4564516 24.0033968,22.3972258 C24.1202032,22.1219355 24.2424935,21.8510323 24.3702677,21.5834194 C24.4037194,21.5126774 24.4399129,21.4435806 24.4744613,21.3733871 C24.5715258,21.1754194 24.6713323,20.978 24.7749774,20.783871 C24.8232355,20.6928387 24.8725903,20.6034516 24.9224935,20.5135161 C25.0184613,20.3380323 25.1177194,20.1652903 25.219171,19.9941935 C25.2712677,19.9048065 25.3233645,19.8165161 25.3771065,19.7287742 C25.4906226,19.542871 25.6079774,19.3597097 25.7269774,19.1781935 C25.7697516,19.1134839 25.8103323,19.0476774 25.8536548,18.9835161 C26.5583323,17.9382903 27.3523968,16.9703871 28.2232355,16.0995484 L26.0313323,13.9076452 L20.4619129,8.33822581 L14.8480742,2.72383871 L14.8480742,2.72383871 L12.3479774,0.224290323 C11.5264935,1.06387097 10.7455903,1.94348387 9.99320323,2.84722581 C9.95262258,2.89219355 9.90984839,2.93387097 9.87036452,2.98103226 C9.8286871,3.03148387 9.78975161,3.08412903 9.74862258,3.13458065 C9.59836452,3.31883871 9.45359032,3.50748387 9.30607419,3.69393548 C9.05326774,4.01364516 8.80265484,4.33390323 8.55862258,4.66019355 C8.40342903,4.86803226 8.25262258,5.0786129 8.10126774,5.28919355 C7.87423548,5.60396774 7.65049355,5.92093548 7.4316871,6.24229032 C7.28197742,6.46329032 7.13500968,6.68483871 6.98913871,6.90803226 C6.77855806,7.23048387 6.57236452,7.55567742 6.37000968,7.88416129 C6.23071935,8.11064516 6.09142903,8.33658065 5.95597742,8.56580645 C5.75581613,8.90416129 5.56223548,9.24690323 5.37084839,9.59129032 C5.2469129,9.81503226 5.12078387,10.0376774 5.00013871,10.2641613 C4.80107419,10.6376129 4.61188065,11.016 4.42378387,11.3965806 C4.32342903,11.5989355 4.2186871,11.7990968 4.12162258,12.0036452 C3.88362258,12.5026774 3.65823548,13.0082903 3.43942903,13.5177419 C3.40159032,13.607129 3.35881613,13.6943226 3.32097742,13.7842581 C3.06817097,14.3841935 2.83017097,14.9918065 2.60423548,15.6049032 C2.53623548,15.7902581 2.4759129,15.9789032 2.41010645,16.1653548 C2.25820323,16.5969355 2.10849355,17.0301613 1.96975161,17.4677742 C1.89462258,17.7057742 1.82662258,17.9459677 1.75588065,18.1861613 C1.63907419,18.5782581 1.52446129,18.972 1.41862258,19.3695806 C1.35007419,19.6289677 1.28646129,19.89 1.2223,20.1515806 C1.12797742,20.5365484 1.03749355,20.9231613 0.95413871,21.3125161 C0.896009677,21.5812258 0.841170968,21.8504839 0.787977419,22.1208387 C0.7123,22.5112903 0.642106452,22.9033871 0.577396774,23.297129 C0.532429032,23.5680323 0.488009677,23.8378387 0.447977419,24.1103871 C0.388751613,24.5183871 0.338848387,24.9285806 0.29113871,25.339871 C0.260429032,25.5998065 0.227525806,25.8591935 0.202848387,26.1207742 C0.158429032,26.5737419 0.127170968,27.0289032 0.0981064516,27.4857097 C0.0833,27.7089032 0.0635580645,27.931 0.0525903226,28.1552903 C0.0196870968,28.8374839 -5.48387097e-05,29.5224194 -5.48387097e-05,30.2111935 C-5.48387097e-05,30.7864516 0.0158483871,31.3584194 0.0388806452,31.9281935 C0.0432677419,32.045 0.0476548387,32.1623548 0.0531387097,32.2786129 C0.0794612903,32.8116452 0.115106452,33.3413871 0.161170968,33.8683871 C0.173783871,34.0164516 0.18913871,34.162871 0.203396774,34.3109355 C0.247267742,34.7567742 0.296622581,35.2020645 0.354203226,35.6446129 C0.380525806,35.8469677 0.409041935,36.0487742 0.438106452,36.2505806 C0.492396774,36.6240323 0.551622581,36.9952903 0.615235484,37.366 C0.655816129,37.6023548 0.696945161,37.8381613 0.741364516,38.0723226 C0.817041935,38.471 0.898203226,38.8674839 0.984848387,39.2612258 C1.05120323,39.5655806 1.12359032,39.8666452 1.19652581,40.1682581 C1.23107419,40.3091935 1.26726774,40.450129 1.3029129,40.5916129 C1.45975161,41.2096452 1.62975161,41.8221935 1.81346129,42.4298065 C1.81894516,42.4484516 1.82442903,42.4670968 1.8299129,42.4857419 C3.50852581,48.0129355 6.27349355,53.0833226 9.87036452,57.4419032 C11.1371387,58.9762903 13.4414613,59.1051613 14.8480742,57.6974516 L20.4619129,52.0841613 L25.9852677,46.5608065 C27.1856871,45.3603871 27.2794613,43.4684516 26.2495903,42.118871 C26.1251065,41.956 26.0055581,41.7892903 25.8860097,41.6220323" mask="url(#icon_section2_block4-b)"></path></g></g></svg>