<svg xmlns="http://www.w3.org/2000/svg" width="90" height="97" viewBox="0 0 90 97"><g fill="none" fill-rule="evenodd"><path fill="#FF5142" d="M55.5536467,27.9630578 L11.7718266,27.9630578 C9.64304711,27.9630578 7.91743683,26.2372548 7.91743683,24.1086681 L7.91743683,3.85442827 C7.91743683,1.72564882 9.64304711,3.85438972e-05 11.7718266,3.85438972e-05 L55.5536467,3.85438972e-05 C57.6824261,3.85438972e-05 59.4080364,1.72564882 59.4080364,3.85442827 L59.4080364,24.1086681 C59.4080364,26.2372548 57.6824261,27.9630578 55.5536467,27.9630578"></path><path fill="#34C2D0" d="M25.4950535,28.4669615 L25.5229979,64.8179036 L25.5759957,65.0138994 L13.9172377,53.3146702 C10.5163169,49.9018009 4.98738758,49.9453555 1.88865096,53.6376681 C-0.778201285,56.8156124 -0.620364026,61.5719293 2.36004283,64.562743 L26.4815846,88.7683105 C31.3305996,93.6342848 37.9046467,96.3649272 44.756788,96.3597312 L70.4937045,96.3400664 C70.6542398,96.3437281 70.8138116,96.352015 70.9755032,96.3516296 C81.4220557,96.3437281 89.8841756,87.8262976 89.8758947,77.3273255 L89.8483298,40.7906017 C89.8444754,35.9602805 85.9041328,32.0621435 81.1150535,32.4707088 C77.2610493,32.7998737 74.1827409,35.8596809 73.8017345,39.7163833 C73.7967238,39.7695739 73.7265739,39.7697666 73.720985,39.7163833 C73.3114561,35.6351627 69.881242,32.450666 65.7131049,32.4539422 C61.5470878,32.4572184 58.1236188,35.6426788 57.7165953,39.7210086 C57.7113919,39.7741991 57.6398929,39.7741991 57.6344968,39.7210086 C57.2213062,35.643257 53.7928266,32.4631927 49.6270021,32.4660835 C45.1850107,32.4695525 41.5869379,36.0913298 41.5904069,40.5554839 L41.5811563,28.4546274 L41.5719058,16.5775182 C41.5682441,11.7473897 37.6275161,7.84905996 32.8388223,8.25781799 C28.7171306,8.60953105 25.4825268,12.0850343 25.4856103,16.3179251 L25.4950535,28.4669615 Z"></path><path fill="#242B54" d="M41.5718865,16.5775375 C41.5682248,11.747409 37.6274968,7.84907923 32.8389957,8.25783726 C28.7171113,8.60955032 25.4825075,12.0848608 25.4855888,16.3179443 L25.4946488,27.9630193 L41.5807516,27.9630193 L41.5718865,16.5775375 Z"></path></g></svg>