<svg xmlns="http://www.w3.org/2000/svg" width="83" height="65" viewBox="0 0 83 65"><g fill="none" fill-rule="evenodd" transform="rotate(90 41.295 41.295)"><path fill="#E8E8E8" d="M35.0463286 37.0892321L37.6077929 39.2295893C42.1684714 35.1085893 45.0359 29.1485536 45.0359 22.517625 45.0359 19.5977321 44.4741143 16.810625 43.4624357 14.2505536 42.5984 13.7509821 41.6986143 13.310375 40.7579714 12.9352321 38.0990071 11.8724821 35.4103286 11.3399416 32.69565 11.3399416 29.9781857 11.3380893 27.2895071 11.8710893 24.6333286 12.9347679 21.9748286 13.9970536 19.6222929 15.5524107 17.5747929 17.600375 15.2315429 19.9431607 13.5285429 22.6689821 12.4648643 25.7796964 11.4011857 28.8927321 11.0864 32.1000179 11.5195786 35.4080536 12.3399714 38.6817321 14.3117929 41.731625 15.7747571 44.0070893 17.9039714 44.6747321 20.1682929 45.0354821 22.5180429 45.0354821 23.4429 45.0354821 24.3524357 44.9732679 25.2475786 44.8650893L31.4402214 37.4160893C32.3432571 36.3296607 33.9599 36.1815536 35.0463286 37.0892321M10.0147821 10.0409679C13.0878893 6.96786071 16.6211036 4.63528929 20.6190679 3.04093214 23.3388536 1.95496786 26.0748893 1.24878929 28.823925.901039286 26.821925.318825 24.7075679-.000139285714 22.5179964-.000139285714 10.0816393-.000139285714.000139285714 10.0813607.000139285714 22.5177179.000139285714 24.6367179.299139286 26.6842179.846067857 28.6277179 1.13996071 26.331825 1.69106786 24.0688964 2.49985357 21.8393964 4.12346071 17.3599679 6.62921071 13.4265393 10.0147821 10.0409679"></path><path fill="#FF5349" d="M62.3775286,20.6429321 C60.7831714,16.6445036 58.4501357,13.1112893 55.3779571,10.0391107 C52.3071714,6.968325 48.7739571,4.634825 44.7755286,3.04093214 C40.7771,1.44564643 36.7526714,0.649396429 32.6971357,0.647539286 C31.4031714,0.648467857 30.1124571,0.739003571 28.8236,0.901039286 C35.5204571,2.85196786 40.9242786,7.826325 43.4625286,14.2501821 C45.0401714,15.1620393 46.4924571,16.2772536 47.8161357,17.6004679 C49.8641,19.6484321 51.4185286,22.0018964 52.4826714,24.6590036 C53.5458857,27.3156464 54.0784214,30.004325 54.0765643,32.721325 C54.0765643,35.4397179 53.5458857,38.1265393 52.4817429,40.7831821 C51.4194571,43.4416821 49.8641,45.7937536 47.8161357,47.8421821 C44.1250643,51.5327893 39.7134214,53.592825 34.5821357,54.0301821 C33.24685,53.6568964 32.6177429,51.964575 33.5890286,50.797825 L39.28535,43.9547179 C40.1828143,42.8738607 40.0402786,41.2669679 38.9589571,40.358825 L37.6074214,39.2296821 C34.2506357,42.2628607 29.9741,44.2931821 25.2472071,44.8651821 L14.2724214,58.0662179 C13.4538857,59.052825 13.4901,60.4888607 14.3573857,61.4327536 L32.5532071,81.1792893 C33.5096357,82.2178964 35.13185,82.2842893 36.1658143,81.3222893 L39.9116714,77.8582536 C40.9456357,76.901825 41.0069214,75.2893607 40.0556,74.2502893 L34.0189571,67.7052536 C33.1498143,66.7632179 33.4033143,65.3898607 34.2942786,64.7198964 C38.1032786,64.5170036 41.7850643,63.6761821 45.3363857,62.166325 C49.1370286,60.5501464 52.4840643,58.2969679 55.3774929,55.4035393 C58.4506,52.3304321 60.7827071,48.7976821 62.3775286,44.7992536 C63.9728143,40.8050036 64.7709214,36.7777893 64.7709214,32.721325 C64.7690643,28.6657893 63.9728143,24.6376464 62.3775286,20.6429321"></path><path fill="#B4413A" d="M12.4650036 25.7795571C13.5286821 22.6693071 15.2316821 19.9434857 17.5749321 17.6007 19.6224321 15.5527357 21.9745036 13.9969143 24.6334679 12.9346286 27.2896464 11.87095 29.978325 11.3384143 32.695325 11.3398071 35.4104679 11.3398071 38.0991464 11.8728071 40.7576464 12.9350929 41.6987536 13.3107 42.598075 13.7513071 43.462575 14.2504143 40.924325 7.82609286 35.5205036 2.85173571 28.8236464.901271429 26.0746107 1.24855714 23.3390393 1.9552 20.6187893 3.0407 16.620825 4.63552143 13.088075 6.96762857 10.0149679 10.0412 6.62939643 13.4267714 4.12318214 17.3597357 2.50003929 21.8396286 1.69125357 24.0686643 1.13968214 26.3315929.846253571 28.62795 2.90303929 35.9385929 8.55293214 41.7435571 15.7748964 44.0074143 14.3119321 41.7314857 12.3396464 38.6815929 11.5197179 35.4079143 11.086075 32.0998786 11.401325 28.8925929 12.4650036 25.7795571M35.0463286 37.0892321C33.9599 36.1815536 32.3432571 36.3296607 31.4402214 37.4160893L25.2475786 44.8650893C29.9740071 44.2935536 34.2505429 42.2632321 37.6077929 39.2295893L35.0463286 37.0892321z"></path></g></svg>