<svg xmlns="http://www.w3.org/2000/svg" width="74" height="70" viewBox="0 0 74 70"><g fill="none" fill-rule="evenodd"><path fill="#3EBFCC" d="M3.05603604.664286392C1.36926505.664286392-.000199146515 2.27206259-.000199146515 4.25290659L-.000199146515 11.4308108C-.000199146515 13.4116548 1.36926505 15.019431 3.05603604 15.019431L29.3838691 15.019431 29.3838691.664286392 3.05603604.664286392zM70.2910194.664286392L43.7388146.664286392 43.7388146 15.019431 70.2910194 15.019431C71.9784542 15.019431 73.3472546 13.4116548 73.3472546 11.4308108L73.3472546 4.25290659C73.3472546 2.27206259 71.9784542.664286392 70.2910194.664286392"></path><polygon fill="#308F99" points="29.383 15.02 43.739 15.02 43.739 .664 29.383 .664"></polygon><path fill="#FF5349" d="M67.4574964,38.8119488 L62.7277667,33.4290185 C61.4207018,31.9427217 59.159725,31.7993362 57.6667899,33.0990991 L48.2617639,41.3404457 C46.4309436,42.9455666 43.5625699,41.6451399 43.5625699,39.2102418 L43.5625699,15 L29.2074253,15 L29.2074253,39.2102418 C29.2074253,41.6451399 26.3390517,42.9455666 24.5082314,41.3404457 L15.1032053,33.0990991 C13.6175723,31.7993362 11.3565955,31.9427217 10.0428924,33.4290185 L5.31249881,38.8046468 C3.99945946,40.2975818 4.15014699,42.5731626 5.64308203,43.8795638 L34.0234519,68.7217639 C35.3803035,69.9060218 37.3969938,69.9060218 38.7538454,68.7217639 L67.1269132,43.8795638 C68.6198483,42.5731626 68.7711996,40.2975818 67.4574964,38.8119488"></path></g></svg>