<svg xmlns="http://www.w3.org/2000/svg" width="128" height="64" viewBox="0 0 128 64"><g fill="none" fill-rule="evenodd"><path fill="#3EBFCC" d="M0.0475385749,48.2649172 C0.353719227,46.471839 2.05444738,45.26695 3.84752557,45.5731306 L12.2172898,47.0017671 C7.44297894,33.299873 12.7112695,17.6214403 25.6080448,9.80887526 C40.4218581,0.836046723 59.7732191,5.58742502 68.7460476,20.4006185 C77.7194959,35.2131922 72.9681176,54.5651729 58.1543044,63.5386213 C56.5992289,64.4807156 54.574346,63.9830171 53.6322516,62.4279417 C52.6901573,60.8728662 53.187236,58.8473635 54.7429313,57.905889 C66.4496927,50.8135303 70.2050542,35.5199926 63.1133153,23.8126114 C56.0221962,12.1052301 40.7274189,8.35048847 29.0206575,15.4416076 C19.9065148,20.9621563 15.6125481,31.4541119 17.5035545,41.3553992 L19.1317662,36.3151946 C19.690205,34.5847161 21.5471225,33.6345644 23.2769812,34.193623 C25.0074597,34.7526816 25.9569916,36.6083595 25.397933,38.338838 L21.0977683,51.6521182 C20.9762877,52.6152856 20.4339637,53.5152336 19.5389741,54.0575576 C19.5271979,54.0643754 19.5141821,54.0699536 19.5017861,54.0773912 C19.4881506,54.0860684 19.4751348,54.0959852 19.4608794,54.1046624 C18.8038926,54.5019535 18.0080708,54.6717783 17.2010927,54.5335632 L2.73932516,52.0649042 C0.946246966,51.7587236 -0.258642077,50.0573756 0.0475385749,48.2649172"></path><path fill="#FF5349" d="M123.831046,23.7140014 L115.461282,22.2847451 C120.235592,35.987259 114.967302,51.6656917 102.070527,59.4782568 C87.2567133,68.4510853 67.9053524,63.699707 58.9325238,48.8865135 C49.9590755,34.07332 54.7104538,14.7213393 69.5242671,5.74851075 C71.0793425,4.80641644 73.1042255,5.30349515 74.0463198,6.85857056 C74.9884141,8.41426578 74.4913354,10.4391488 72.9356402,11.3812431 C61.2288787,18.472982 57.4735173,33.7671394 64.5652562,45.4745206 C71.6563753,57.1819019 86.9511525,60.9366436 98.6579139,53.8455244 C110.364675,46.7544053 112.066023,37.8324003 110.175017,27.9317328 L108.546805,32.9719374 C107.988366,34.7024159 106.131449,35.6525676 104.40159,35.0928892 C102.671112,34.5344504 101.72158,32.6781527 102.280638,30.9476742 L106.580803,17.6350139 C106.702284,16.6718464 107.244608,15.7712786 108.139597,15.2295744 C108.151374,15.2227566 108.164389,15.2171784 108.176785,15.2097408 C108.190421,15.2004438 108.203437,15.1911468 108.217692,15.1824697 C108.874679,14.7845588 109.670501,14.6153537 110.477479,14.7535688 L124.939246,17.2222278 C126.732324,17.5277887 127.937214,19.2291366 127.631033,21.0222148 C127.324852,22.815293 125.624124,24.020182 123.831046,23.7140014 Z"></path><path fill="#E5E5E5" d="M100.035479,19.6488644 C98.8448453,18.2741505 96.76542,18.124779 95.3907061,19.3154126 L88.9720687,24.8743889 C85.9567471,10.6809943 73.3271051,0 58.2486377,0 C40.9295973,0 26.8390894,14.0898882 26.8390894,31.4095484 C26.8390894,48.727969 40.9295973,62.8178571 58.2486377,62.8178571 C60.0671277,62.8178571 61.5416292,61.3439754 61.5416292,59.5254854 C61.5416292,57.7063757 60.0671277,56.2324939 58.2486377,56.2324939 C44.560999,56.2324939 33.4250724,45.0971871 33.4250724,31.4095484 C33.4250724,17.7219097 44.560999,6.58598301 58.2486377,6.58598301 C68.9042203,6.58598301 78.0127848,13.3349731 81.5251851,22.7831874 L77.5212842,19.3154126 C76.1471901,18.124779 74.067145,18.2741505 72.8765114,19.6488644 C71.6858777,21.0235784 71.8352492,23.1030036 73.2099632,24.2936373 L83.7855916,33.4524055 C84.3886559,34.2128988 85.3189741,34.7019201 86.3645748,34.7019201 C86.37945,34.7019201 86.3930856,34.7000607 86.4073409,34.6994409 C86.4234557,34.7000607 86.4395705,34.7019201 86.456305,34.7019201 C87.2248557,34.7019201 87.9934063,34.434167 88.6119656,33.8980409 L99.7020271,24.2936373 C101.076741,23.1030036 101.226113,21.0235784 100.035479,19.6488644"></path><path fill="#308F99" d="M42.9395432 11.8814208C45.7695449 9.65758235 49.0929066 8.03618845 52.7156311 7.20813714 48.9243213 5.81854802 44.8826127 5.1597018 40.8235498 5.28985957 37.4518438 7.54654733 34.5400286 10.4366696 32.2597885 13.7897816 35.7071099 12.3375928 39.3540066 11.7227523 42.9395432 11.8814208M58.2486997 56.2327419C57.896654 56.2327419 57.5464676 56.2234449 57.1975208 56.2085697 56.4227722 56.814733 55.6046377 57.3830886 54.7424974 57.9055791 53.1868022 58.8476734 52.6897235 60.8725563 53.6324376 62.4276318 53.643594 62.4468455 53.6578493 62.4648197 53.6696255 62.4834137 55.1645804 62.7028225 56.6936243 62.8181051 58.2486997 62.8181051 60.0671897 62.8181051 61.5410714 61.3442233 61.5410714 59.5251136 61.5410714 57.7066236 60.0671897 56.2327419 58.2486997 56.2327419"></path><path fill="#B2413A" d="M72.9153727 11.3941349C72.9221905 11.3897963 72.9290083 11.3854577 72.9358261 11.3811191 74.4915213 10.4390248 74.9886 8.41414182 74.0465057 6.8590664 73.1044114 5.30337119 71.0795284 4.80629248 69.5238332 5.74838679 68.4094348 6.42334778 67.3532975 7.15842926 66.3541817 7.94495406 68.7236729 8.76556779 70.9313965 9.93574809 72.9153727 11.3941349M58.0780071 17.8614884C59.8679863 19.400449 61.4645882 21.2195588 62.7959163 23.3027028 63.6921455 21.0819634 64.9100503 18.9820848 66.4322764 17.079922 65.0327705 15.3234119 63.4690179 13.7516019 61.7782065 12.37069 60.3415127 14.0776162 59.1068733 15.9208981 58.0780071 17.8614884M69.6008742 51.4256436C67.8102752 49.886683 66.2136733 48.0675732 64.8823453 45.9838094 63.9867359 48.2051686 62.7682113 50.3050472 61.2459852 52.2065902 62.6461109 53.9637201 64.2098635 55.5349103 65.900055 56.916442 67.3367489 55.2095159 68.5720081 53.366234 69.6008742 51.4256436"></path></g></svg>