<svg xmlns="http://www.w3.org/2000/svg" xmlns:xlink="http://www.w3.org/1999/xlink" width="92" height="75" viewBox="0 0 92 75"><defs><polygon id="value-ideas-a" points="0 .364 56.916 .364 56.916 74.692 0 74.692"></polygon><polygon id="value-ideas-c" points=".387 .161 33.048 .161 33.048 22.688 .387 22.688"></polygon></defs><g fill="none" fill-rule="evenodd" transform="rotate(44 49.634 51.356)"><g transform="translate(0 1.69)"><path fill="#34C2D0" d="M40.9623058,0.563521367 C42.373424,0.0629015525 43.9228146,0.530805152 44.8320784,1.67587267 C42.4956469,3.25859672 40.5363777,5.19440897 39.2987171,6.54688494 C36.7974699,6.41602008 34.3986924,7.91232394 33.4949841,10.3876451 C32.4362275,13.2896408 33.8167608,16.48753 36.5912713,17.733433 L25.265815,21.7457306 C24.2911187,22.0914114 23.521979,22.8537609 23.1676562,23.8247535 L8.20993565,64.8080995 L34.7159779,74.4805616 C36.5141352,75.1373551 38.504886,74.2114244 39.1604448,72.4126499 L56.2579357,25.5610995 L52.8103986,19.6839918 C51.4838487,20.62412 50.2313732,21.7525208 49.220257,22.7698099 C50.2616203,24.2790768 50.5826096,26.2525435 49.9054457,28.1062566 C48.7974154,31.143309 45.4362873,32.7075144 42.3986176,31.5988668 C39.3615652,30.4902193 37.7979771,27.1290912 38.9060073,24.0920388 C39.8097156,21.6167176 42.2084932,20.1204138 44.7097404,20.2512786 C45.947401,18.8988027 47.9066701,16.9629904 50.2431017,15.3802664 C49.3338378,14.2351988 47.7844473,13.7672952 46.373329,14.2679151 L44.2234039,15.029751 C42.9078244,17.6487596 39.8082617,18.9239222 36.9875943,17.8944732 C36.8525377,17.845172 36.7203949,17.7914164 36.5912713,17.733433 L44.2234039,15.029751 C44.3246153,14.828263 44.4152679,14.6188211 44.4944224,14.4018629 C45.1715863,12.5481498 44.850597,10.5746831 43.8092338,9.06541619 C44.82035,8.04812709 46.0728254,6.91972633 47.3993754,5.97959812 L47.3993754,5.97959812 L56.4401618,21.392639 C56.9630039,22.2846188 57.0605353,23.3636366 56.7062125,24.3346292 L56.7062125,24.3346292 L56.2579357,25.5610995 L61.851185,35.0970327 C62.3366813,35.9252996 62.4554555,36.9148392 62.1862556,37.8294071 L62.1172358,38.0390229 L44.5714681,86.1170436 C43.9159092,87.9158181 41.9251584,88.8417487 40.1270012,88.1849553 L40.1270012,88.1849553 L7.6898002,76.3478584 C5.89164296,75.6916823 4.96571236,73.7015488 5.62188851,71.9027742 L5.62188851,71.9027742 L8.20993565,64.8080995 L2.27877695,62.6434647 C0.540558288,62.0091611 -0.382613045,60.1283485 0.150495045,58.3788394 L0.210865263,58.1983806 L17.756633,10.1203598 C18.1109557,9.14936723 18.8800954,8.3870177 19.8547917,8.04133694 L19.8547917,8.04133694 Z"></path><mask id="value-ideas-b" fill="#fff"><use xlink:href="#value-ideas-a"></use></mask><path fill="#FF5349" d="M44.4944224,14.4018629 C43.3863921,17.4389153 40.025264,19.0031207 36.9875943,17.8944732 C33.950542,16.7858256 32.3869538,13.4246975 33.4949841,10.3876451 C34.3986924,7.91232394 36.7974699,6.41602008 39.2987171,6.54688494 C40.5363777,5.19440897 42.4956469,3.25859672 44.8320784,1.67587267 C43.9228146,0.530805152 42.373424,0.0629015525 40.9623058,0.563521367 L19.8547917,8.04133694 C18.8800954,8.3870177 18.1109557,9.14936723 17.756633,10.1203598 L0.210865263,58.1983806 C-0.445310893,59.9971551 0.480619713,61.9872886 2.27877695,62.6434647 L34.7159779,74.4805616 C36.5141352,75.1373551 38.504886,74.2114244 39.1604448,72.4126499 L56.7062125,24.3346292 C57.0605353,23.3636366 56.9630039,22.2846188 56.4401618,21.392639 L47.3993754,5.97959812 C46.0728254,6.91972633 44.82035,8.04812709 43.8092338,9.06541619 C44.850597,10.5746831 45.1715863,12.5481498 44.4944224,14.4018629" mask="url(#value-ideas-b)"></path></g><path fill="#34C2D0" d="M38.3547617,13.318771 C38.5708122,13.4891422 38.804764,13.6187725 39.049827,13.7076619 C40.0337826,14.0669229 41.1782328,13.7774153 41.864656,12.9113616 C42.2770038,12.3903713 42.9578714,11.6125896 43.8091103,10.7564124 C43.1442921,9.79282727 42.1856453,9.01751471 41.0016887,8.58603105 C40.4399575,8.38047445 39.8664978,8.26751092 39.2985937,8.23788114 C38.5899481,9.01195913 38.1171062,9.59529541 37.9479696,9.81011131 C37.0911751,10.8915983 37.2732748,12.4625938 38.3547617,13.318771"></path><g transform="translate(44.445 .456)"><mask id="value-ideas-d" fill="#fff"><use xlink:href="#value-ideas-c"></use></mask><path fill="#34C2D0" d="M31.2033058,17.7791022 C22.6699294,15.4624238 21.2020207,13.2142643 17.280396,7.20497469 C16.7297759,6.36176055 16.1600199,5.48891663 15.5155722,4.5308871 C13.1846963,1.0648202 10.3143114,0.245062967 8.31615314,0.167284796 C5.52601558,0.0592595588 2.76180408,1.30185843 0.387100722,2.91050854 C0.487718514,3.03705239 0.582163436,3.16915182 0.665497191,3.31174513 L2.95501493,7.21423399 C4.67107299,5.99817846 6.51305761,5.09693934 8.122325,5.15928533 C8.91368702,5.19014969 10.1118412,5.4475584 11.3704896,7.31917279 C11.9958014,8.24880712 12.5556807,9.10621886 13.0964242,9.93585268 C16.6736028,15.4161273 18.86312,18.7723171 26.0582181,21.397639 C27.2020511,21.8155424 28.4730451,22.2143098 29.8946573,22.6001142 C31.2261455,22.9618444 32.5983746,22.1754207 32.9601049,20.8439325 C33.3212178,19.5124443 32.5354113,18.1395978 31.2033058,17.7791022 Z" mask="url(#value-ideas-d)"></path></g><path fill="#160C28" d="M44.8320167,3.36680714 C42.4955851,4.94953119 40.536316,6.88534344 39.2986554,8.23781941 C39.8665595,8.26744919 40.4400192,8.38041272 41.0017504,8.58596932 C42.185707,9.01745298 43.1443539,9.79276554 43.809172,10.7563507 C44.8202882,9.73844428 46.0727637,8.6106608 47.3993136,7.67053259 L45.1097959,3.76742645 C45.0264621,3.62483313 44.9320172,3.49335099 44.8320167,3.36680714"></path><path fill="#FFF" d="M29.0972458,50.9518624 C29.5528037,49.7030907 29.1268756,48.3864174 27.8639063,46.8734468 L25.8188342,52.4777961 C27.2781008,52.7555753 28.641688,52.2006342 29.0972458,50.9518624 L29.0972458,50.9518624 Z M29.9219413,35.866601 C28.250328,35.475241 27.110816,36.1110467 26.7608143,37.0709281 C26.2935279,38.3511815 26.7225425,39.562916 28.0404504,41.0215653 L29.9219413,35.866601 Z M17.8675594,49.6104976 C18.8360829,48.841358 20.2953495,47.2320906 20.9472046,48.2320956 C21.0391804,48.3746889 22.4478295,50.4845761 24.1922828,51.664829 C24.9509286,49.5839543 25.7095744,47.6117221 26.4694548,45.5283782 C23.9206765,43.2561445 21.1478229,40.3203272 22.6904233,36.0937627 C23.8009228,33.0505374 26.7978515,31.0974411 31.3157756,32.3468301 L31.6892342,31.3221336 C31.8188645,30.9671935 32.1984961,30.8165755 32.5194853,30.93386 L32.9373887,31.0857127 C33.2577607,31.2029972 33.4515888,31.5634929 33.3219585,31.9178156 L32.9367714,32.9739938 C35.7046866,34.238815 37.3244479,36.4635176 37.7497587,37.0888294 C38.0003772,37.3987075 37.909636,37.9450066 37.5571651,38.2153783 C36.5645675,38.9437771 34.9941892,40.3653892 34.4448037,39.5851383 C34.2559139,39.4073597 33.0102286,37.6462396 31.6157771,36.5931479 C30.9139217,38.5159971 30.2139181,40.4351426 29.51268,42.3567573 C31.8793586,44.5265213 34.9880163,47.8388838 33.4565271,52.034584 C32.1824466,55.5265769 28.8781089,57.2222645 24.4935189,55.9148505 L23.2780806,59.2451142 C23.1496849,59.5969679 22.7786954,59.715487 22.4262245,59.5870913 C22.0428892,59.4475844 21.444738,59.1938794 21.6435044,58.6488149 L22.8589427,55.3179339 C19.4947282,53.7981731 18.0521283,51.3864325 17.6749659,50.6308732 C17.4910143,50.2364267 17.3700261,49.9765489 17.8675594,49.6104976 L17.8675594,49.6104976 Z" transform="rotate(-90 27.703 45.266)"></path></g></svg>