<svg xmlns="http://www.w3.org/2000/svg" id="regular" height="512" viewBox="0 0 24 24" width="512"><path d="m20.5 5c-1.379 0-2.5-1.121-2.5-2.5s1.121-2.5 2.5-2.5 2.5 1.121 2.5 2.5-1.121 2.5-2.5 2.5zm0-3.5c-.552 0-1 .448-1 1s.448 1 1 1 1-.448 1-1-.448-1-1-1z"></path><path d="m23.25 6c-.192 0-.384-.073-.53-.22l-1.35-1.35c-.293-.293-.293-.768 0-1.061s.768-.293 1.061 0l1.35 1.35c.293.293.293.768 0 1.061-.147.147-.339.22-.531.22z"></path><path d="m14.25 6h-12.5c-.965 0-1.75-.785-1.75-1.75v-2.5c0-.965.785-1.75 1.75-1.75h12.5c.965 0 1.75.785 1.75 1.75v2.5c0 .965-.785 1.75-1.75 1.75zm-12.5-4.5c-.138 0-.25.112-.25.25v2.5c0 .138.112.25.25.25h12.5c.138 0 .25-.112.25-.25v-2.5c0-.138-.112-.25-.25-.25z"></path><path d="m22.25 24h-12.5c-.965 0-1.75-.785-1.75-1.75v-12.5c0-.965.785-1.75 1.75-1.75h12.5c.965 0 1.75.785 1.75 1.75v12.5c0 .965-.785 1.75-1.75 1.75zm-12.5-14.5c-.138 0-.25.112-.25.25v12.5c0 .138.112.25.25.25h12.5c.138 0 .25-.112.25-.25v-12.5c0-.138-.112-.25-.25-.25z"></path><path d="m16 15c-.827 0-1.5-.673-1.5-1.5s.673-1.5 1.5-1.5 1.5.673 1.5 1.5-.673 1.5-1.5 1.5zm0-1.501-.75.001.75.001c0-.001 0-.001 0-.002z"></path><path d="m18.25 19c-.414 0-.75-.336-.75-.75v-.375c0-.177-.257-.375-.6-.375h-1.8c-.343 0-.6.198-.6.375v.375c0 .414-.336.75-.75.75s-.75-.336-.75-.75v-.375c0-1.034.941-1.875 2.1-1.875h1.8c1.158 0 2.1.841 2.1 1.875v.375c0 .414-.336.75-.75.75z"></path><path d="m3 23.5c-1.654 0-3-1.346-3-3s1.346-3 3-3 3 1.346 3 3-1.346 3-3 3zm0-4.5c-.827 0-1.5.673-1.5 1.5s.673 1.5 1.5 1.5 1.5-.673 1.5-1.5-.673-1.5-1.5-1.5z"></path><path d="m5.25 12.5h-4.5c-.414 0-.75-.336-.75-.75s.336-.75.75-.75h4.5c.414 0 .75.336.75.75s-.336.75-.75.75z"></path><path d="m5.25 15.5h-4.5c-.414 0-.75-.336-.75-.75s.336-.75.75-.75h4.5c.414 0 .75.336.75.75s-.336.75-.75.75z"></path><path d="m5.25 9.5h-4.5c-.414 0-.75-.336-.75-.75s.336-.75.75-.75h4.5c.414 0 .75.336.75.75s-.336.75-.75.75z"></path></svg>